<?xml version="1.0" encoding="utf-8"?>
<!-- Generator: Adobe Illustrator 16.0.0, SVG Export Plug-In . SVG Version: 6.00 Build 0)  -->
<!DOCTYPE svg PUBLIC "-//W3C//DTD SVG 1.1//EN" "http://www.w3.org/Graphics/SVG/1.1/DTD/svg11.dtd">
<svg version="1.1" id="Layer_1" xmlns="http://www.w3.org/2000/svg" xmlns:xlink="http://www.w3.org/1999/xlink" x="0px" y="0px"
	 width="547.412px" height="423px" viewBox="0 0 547.412 423" enable-background="new 0 0 547.412 423" xml:space="preserve">
<g>
	<path fill="#0092BF" d="M471.493,211.5c0-18.523-5.198-36.501-15.44-53.428c-9.919-16.374-24.115-31.082-42.204-43.724
		c-18.122-12.662-39.217-22.594-62.717-29.541c-24.344-7.195-50.207-10.845-76.866-10.845c-26.658,0-52.515,3.65-76.858,10.845
		c-23.5,6.946-44.602,16.878-62.717,29.541c-18.088,12.642-32.292,27.35-42.203,43.724c-10.25,16.927-15.441,34.904-15.441,53.428
		c0,18.517,5.19,36.494,15.441,53.421c9.911,16.374,24.115,31.089,42.203,43.73c18.116,12.656,39.217,22.595,62.717,29.534
		c24.344,7.195,50.2,10.845,76.858,10.845c26.659,0,52.522-3.649,76.866-10.845c23.5-6.939,44.595-16.878,62.717-29.534
		c18.089-12.642,32.285-27.356,42.204-43.73C466.294,247.994,471.493,230.017,471.493,211.5 M457.627,157.146
		c10.416,17.211,15.696,35.499,15.696,54.354s-5.28,37.138-15.696,54.347c-10.05,16.596-24.419,31.491-42.722,44.277
		c-18.281,12.772-39.562,22.795-63.249,29.797c-24.517,7.243-50.553,10.92-77.392,10.92c-26.838,0-52.874-3.677-77.384-10.92
		c-23.693-7.002-44.975-17.024-63.25-29.797c-18.302-12.786-32.679-27.682-42.722-44.277
		c-10.423-17.209-15.703-35.491-15.703-54.347s5.28-37.144,15.703-54.354c10.043-16.595,24.419-31.49,42.722-44.276
		c18.275-12.773,39.556-22.795,63.25-29.797c24.51-7.243,50.546-10.914,77.384-10.914c26.839,0,52.875,3.67,77.392,10.914
		c23.687,7.002,44.968,17.024,63.249,29.797C433.208,125.655,447.578,140.551,457.627,157.146"/>
	<path fill="#0092BF" d="M464.616,211.5c0-17.577-5.005-34.628-14.854-50.69c-9.552-15.565-23.244-29.562-40.683-41.589
		c-17.487-12.054-37.862-21.516-60.554-28.138c-23.514-6.856-48.5-10.333-74.261-10.333c-25.753,0-50.739,3.477-74.26,10.333
		c-22.691,6.622-43.061,16.084-60.547,28.138c-17.445,12.027-31.13,26.023-40.683,41.589c-9.856,16.062-14.854,33.113-14.854,50.69
		c0,17.569,4.997,34.621,14.854,50.684c9.552,15.573,23.237,29.562,40.683,41.589c17.486,12.054,37.855,21.522,60.547,28.138
		c23.521,6.856,48.507,10.333,74.26,10.333c25.761,0,50.747-3.477,74.261-10.333c22.691-6.615,43.066-16.084,60.554-28.138
		c17.438-12.027,31.131-26.016,40.683-41.589C459.611,246.121,464.616,229.069,464.616,211.5 M452.506,159.171
		c10.167,16.561,15.316,34.172,15.316,52.329s-5.149,35.762-15.316,52.329c-9.787,15.945-23.776,30.26-41.589,42.535
		c-17.77,12.255-38.456,21.868-61.479,28.579c-23.811,6.947-49.101,10.465-75.173,10.465c-26.063,0-51.354-3.518-75.165-10.465
		c-23.029-6.711-43.71-16.324-61.48-28.579c-17.812-12.275-31.808-26.59-41.588-42.535c-10.167-16.567-15.316-34.172-15.316-52.329
		s5.149-35.769,15.316-52.329c9.78-15.952,23.776-30.26,41.588-42.542c17.77-12.248,38.451-21.869,61.48-28.581
		c23.811-6.946,49.102-10.464,75.165-10.464c26.072,0,51.362,3.518,75.173,10.464c23.023,6.711,43.71,16.333,61.479,28.581
		C428.73,128.911,442.719,143.219,452.506,159.171"/>
	<path fill="#0092BF" d="M456.578,217.465c3.269,1.832,3.187,4.804,3.027,6.311c-0.09,0.829-0.27,1.672-0.525,2.488
		c-0.312,0.961-1.044,2.599-1.818,3.512l-2.578-2.02l-0.29-1.375l1.514,0.934c1.334-0.92,2.122-1.963,2.226-2.924
		c0.173-1.618-1.175-3.083-3.089-3.29c-2.323-0.249-3.505,1.396-4.708,3.055c-0.905,1.32-2.446,3.629-6.221,3.221
		c-1.568-0.165-3.296-0.815-4.561-2.184c-1.604-1.763-1.515-3.719-1.39-4.9c0.255-2.337,1.278-3.926,2.066-4.707l2.322,1.887
		l0.387,1.32l-1.52-0.912c-0.927,0.477-1.784,1.292-1.908,2.516c-0.138,1.286,0.927,2.571,2.729,2.765
		c0.754,0.083,1.507-0.062,2.095-0.373c0.691-0.395,1.203-1.044,1.831-1.97c0.519-0.761,1.162-1.555,1.625-2.032
		c0.532-0.546,2.481-2.592,5.972-2.219C454.835,216.684,455.824,217.057,456.578,217.465"/>
	<path fill="#0092BF" d="M454.898,232.637l2.114,3.199l-3.58,10.846l-0.753-0.691c-0.864-0.747-0.975-0.782-2.564-1.376l-14.64-4.97
		c-0.29,0.691-0.629,1.99-0.85,2.751l-0.788-2.184l3.815-11.557l1.693,2.619l-0.132,1.134c-0.193-0.249-0.49-0.65-0.712-0.719
		c-0.11-0.034-0.256,0.007-0.331,0.076c-0.125,0.097-0.173,0.221-0.339,0.739l-0.933,2.819l7.112,2.51l1.775-5.385l1.659,2.447
		l-0.083,1.085c-0.068-0.069-0.407-0.436-0.478-0.504c-0.075-0.049-0.124-0.111-0.179-0.132c-0.359-0.117-0.449,0.151-0.615,0.656
		l-0.449,1.376c-0.235,0.705,0.055,1.037,1.258,1.41l4.714,1.555c0.732,0.221,1.458,0.436,1.963,0.118
		c0.491-0.277,1.03-1.722,1.175-2.157c0.132-0.394,0.602-1.998,0.477-2.758c-0.068-0.436-0.2-0.691-0.463-1.099L454.898,232.637z"/>
	<path fill="#0092BF" d="M450.73,250.13l0.29,1.77l-3.456,6.524l-0.684-1.009c-0.229-0.325-0.457-0.643-0.886-0.961
		c-0.524-0.38-2.667-1.521-3.289-1.846c-1.266-0.67-2.516-1.306-3.753-1.963c-2.634-1.396-5.232-2.868-7.831-4.319l-0.139,0.248
		c-0.173,0.332-0.885,1.991-1.071,2.344l-0.387-2.517l3.02-5.709l0.325,0.823c0.374,0.864,0.643,1.105,2.688,2.239l6.69,3.594
		c1.984,1.071,3.581,1.922,5.281,2.771c1.12,0.567,1.527,0.554,2.143-0.359L450.73,250.13z"/>
	<path fill="#0092BF" d="M440.411,261.673c1.756,3.96,0.539,6.96-0.774,8.984l-1.479-0.228c1.349-1.763,1.093-5.558-3.296-8.916
		c-2.827-2.163-6.995-3.698-10.016-2.439c-0.94,0.4-1.576,1.009-1.963,1.479l-1.154-0.885l0.629-0.815
		c1.085-1.41,3.961-5.073,8.37-4.624c1.61,0.152,3.588,0.892,5.695,2.509C437.446,257.519,439.292,259.102,440.411,261.673"/>
	<path fill="#0092BF" d="M438.157,270.43l1.479,0.228c-0.38,0.595-0.773,1.106-1.099,1.535c-1.106,1.444-1.41,1.797-4.168,4.914
		c-1.03-1.873-1.099-1.977-1.604-2.419l-2.274-1.741c-1.534-1.176-2.184-1.673-7.838-6.062c-1.07-0.815-1.935-1.514-2.841-2.253
		c-0.566,0.698-1.223,1.687-1.499,2.197l-0.139-2.516l3.553-4.645l1.154,0.885c-0.173,0.215-0.305,0.395-0.38,0.519
		c2.232,1.845,3.228,2.661,7.126,5.646c0.975,0.747,2.273,1.742,3.912,3.055l0.539,0.415c0.346,0.263,1.389,1.064,2.197,1.154
		C436.754,271.404,437.514,271.266,438.157,270.43"/>
	<path fill="#0092BF" d="M431.591,211.5c0-54.133-70.576-98.175-157.326-98.175c-86.742,0-157.318,44.042-157.318,98.175
		s70.576,98.168,157.318,98.168C361.015,309.668,431.591,265.633,431.591,211.5 M422.04,171.792
		c8.467,12.565,12.759,25.919,12.759,39.708c0,13.782-4.292,27.143-12.759,39.701c-8.129,12.068-19.747,22.892-34.531,32.168
		c-14.736,9.248-31.877,16.505-50.961,21.571c-19.732,5.238-40.683,7.894-62.282,7.894c-21.592,0-42.549-2.655-62.274-7.894
		c-19.083-5.066-36.231-12.323-50.961-21.571c-14.791-9.276-26.41-20.1-34.538-32.168c-8.467-12.559-12.759-25.919-12.759-39.701
		c0-13.789,4.292-27.143,12.759-39.708c8.128-12.062,19.748-22.885,34.538-32.168c14.729-9.247,31.878-16.505,50.961-21.571
		c19.726-5.239,40.683-7.893,62.274-7.893c21.6,0,42.55,2.654,62.282,7.893c19.084,5.066,36.225,12.324,50.961,21.571
		C402.292,148.907,413.911,159.73,422.04,171.792"/>
	<path fill="#0092BF" d="M426.58,279.864c1.113,2.703,0.326,5.392-1.748,7.285c-2.944,2.675-6.158,2.239-7.858,1.451
		c-1.549-0.719-2.668-1.956-3.968-3.38l-6.87-7.81c-0.166,0.109-0.263,0.2-0.477,0.387c-0.242,0.228-1.071,0.981-1.576,1.631
		l0.359-2.378l5.136-4.672c-0.188,1.79-0.16,1.922,1.126,3.359l4.645,5.301l1.922,2.115c0.753,0.822,1.77,1.907,3.234,2.475
		c1.632,0.614,3.166,0.283,4.224-0.678c0.422-0.387,0.732-0.829,0.898-1.3c0.988-2.439-0.857-4.824-1.521-5.688
		c-1.126-1.466-4.555-5.295-5.93-6.809c-0.767-0.843-1.59-1.714-2.405-2.516c-0.346,0.276-0.774,0.622-1.099,0.919
		c-0.471,0.429-0.906,0.898-1.334,1.376l0.428-2.371l2.91-2.646l-0.014,0.801c0.035,0.761,0.076,1.002,1.141,2.205
		c0.678,0.768,3.995,4.548,4.741,5.405C424.085,276.084,425.847,278.122,426.58,279.864"/>
	<path fill="#0092BF" d="M426.083,211.5c0-12.462-3.981-24.551-11.84-35.948c-7.624-11.045-18.544-20.97-32.458-29.506
		c-13.947-8.55-30.204-15.269-48.299-19.962c-18.752-4.865-38.679-7.333-59.221-7.333c-20.534,0-40.461,2.468-59.213,7.333
		c-18.102,4.693-34.352,11.412-48.299,19.962c-13.921,8.536-24.841,18.461-32.458,29.506c-7.858,11.397-11.847,23.486-11.847,35.948
		c0,12.455,3.988,24.55,11.847,35.941c7.617,11.045,18.537,20.97,32.458,29.507c13.947,8.549,30.197,15.268,48.299,19.961
		c18.752,4.865,38.679,7.333,59.213,7.333c20.542,0,40.469-2.468,59.221-7.333c18.095-4.693,34.352-11.412,48.299-19.961
		c13.914-8.537,24.834-18.462,32.458-29.507C422.101,236.05,426.083,223.955,426.083,211.5 M415.756,174.536
		c8.073,11.701,12.165,24.136,12.165,36.964c0,12.821-4.092,25.263-12.165,36.957c-7.762,11.26-18.869,21.357-33.004,30.031
		c-14.106,8.646-30.521,15.435-48.804,20.176c-18.904,4.9-38.982,7.389-59.684,7.389c-20.693,0-40.772-2.488-59.683-7.389
		c-18.274-4.741-34.697-11.529-48.797-20.176c-14.135-8.674-25.242-18.771-33.011-30.031c-8.066-11.694-12.158-24.136-12.158-36.957
		c0-12.828,4.092-25.263,12.158-36.964c7.769-11.26,18.876-21.357,33.011-30.024c14.1-8.654,30.522-15.441,48.797-20.176
		c18.91-4.907,38.989-7.389,59.683-7.389c20.701,0,40.779,2.481,59.684,7.389c18.282,4.734,34.697,11.521,48.804,20.176
		C396.887,153.179,407.995,163.276,415.756,174.536"/>
	<path fill="#0092BF" d="M416.71,229.325c-0.415-1.576,1.389-2.743,0.346-4.182c-4.292-3.436-8.246-7.616-14.35-6.794
		c-11.438-1.99-23.361-1.783-34.316-5.073c-2.357-0.208-4.368-3.09-7.002-1.307c-7.347,0.415-15.04,0.069-21.419-2.605
		c-0.63-3.09-1.942-6.172-1.252-9.531c4.576,0.069,9.566-0.415,14.073-1.376c2.356,0.139,5.135,0.961,7.284-0.207
		c4.293,0.346,9.497-1.507,13.306,1.099c2.916,1.1,6.311,0.892,8.529-1.575c0.207-1.783,2.426-2.813,1.942-4.458
		c-2.841-2.129-5.612-4.39-9.221-4.804c-4.507-3.221-9.704-4.866-14.349-7.817l-7.216-1.576c-6.027-2.812-12.131-5.626-18.51-7.755
		c-9.352-2.398-18.088-6.373-26.824-10.423c-3.193-1.99-6.241-4.319-9.981-5.143c-0.49,0.685-0.629,1.23-0.352,2.053
		c-1.798,1.03-4.569,0.761-6.38,0c-8.246-0.546-16.077-4.589-24.468-2.329c-2.771-2.329-5.544-4.665-8.806-5.765
		c-1.521-0.615-3.394-1.022-4.99-0.615c2.012,1.376,2.495,4.12,2.219,6.38l-4.022,0.276c-5.682,3.359-11.992,6.104-18.787,6.172
		c-0.49-0.068-1.182-0.068-1.036,0.615c6.097,3.844,14.971,2.537,21.973,1.576c4.782-0.062,9.635-4.112,14.072-0.961
		c9.635,4.873,17.473,12.56,24.889,20.854c6.104,3.773,12.614,6.863,18.787,10.223c-4.23,1.852-9.221,1.983-13.728,3.221
		l-6.103-1.984l-26.824-11.459c-7.278-2.744-13.451-8.37-19.831-13.306l-0.967-0.27l-0.139,2.468
		c-0.553,0.892-1.527,1.092-2.633,0.961c-5.481-1.376-10.817-3.09-16.229-4.666c-12.959-2.06-26.271-8.094-39.929-3.843
		c-3.256-2.398-6.933-3.843-10.748-4.941c-3.187-0.615-7.348-1.369-10.326,0l1.382,0.892c0.146,2.882,1.735,5.494,4.23,7.271
		c-1.659,0.691-3.532,1.03-5.129,1.991c-4.714,4.251-10.118,7.479-15.738,10.015c-6.165,1.646-10.05,8.985-16.913,8.985
		c-0.138,0.207,0.138,0.415,0.208,0.477c3.532,1.237,7.831,1.237,11.854,0.968c14.626-2.612,27.868-8.784,41.042-14.749
		c3.187,0.346,6.241,1.029,9.013,2.329c4.922,3.297,10.465,5.557,13.589,10.976c8.107,6.311,13.243,15.435,19.968,22.975
		c6.166,3.705,10.955,9.262,16.845,13.312l26.348,16.664c-4.79,2.06-9.643,3.981-14.84,5.08c-0.415,0.339-1.39,0.27-1.175,1.092
		c0.276,0.484,0.76,0.822,1.175,0.961c3.324,0.753,6.518,1.853,10.05,2.129c2.363-2.198,5.757,1.369,7.769-1.576
		c3.67-0.346,6.649-2.128,9.843-3.504l13.864,4.188l0.768,0.615c-9.78,10.976-19.905,19.892-31.684,27.778
		c-4.783,3.29-10.816,3.566-16.015,5.965c-1.389,0.415-2.985,0.553-4.229,1.375c0.483,2.883,3.884,0.892,5.128,3.083
		c3.539,0.823,7.424,0.414,10.955,0.346v-0.276c0.069-0.201,0.346-0.408,0.622-0.339c4.576,1.029,7.071-2.813,11.509-2.198
		c2.011-1.168,3.745-3.151,6.241-3.221c4.575,0.276,6.648-5.626,11.231-5.419c1.244-2.267,4.507-1.099,5.198-3.704
		c0.275-1.922,2.355-1.853,3.67-2.606c0.697-2.267,3.123-2.129,4.996-2.605c1.943-0.346,1.666-3.158,3.602-3.359
		c1.666-0.621,1.804-2.336,1.873-3.912c0.905-1.783,3.048-1.575,4.507-2.605c0.622-1.714,1.941-3.428,3.47-4.597l21.834-1.237
		c11.923-0.892,21.281-7.816,31.684-12.206c10.879-3.565,22.739-4.872,33.826-7.886l1.527,0.338
		c2.219,0.139,4.575-0.892,5.827-3.082C414.422,230.556,415.743,230.355,416.71,229.325 M414.243,175.552
		c7.858,11.397,11.84,23.486,11.84,35.948c0,12.455-3.981,24.55-11.84,35.941c-7.624,11.045-18.544,20.97-32.458,29.507
		c-13.947,8.549-30.204,15.268-48.299,19.961c-18.752,4.865-38.679,7.333-59.221,7.333c-20.534,0-40.461-2.468-59.213-7.333
		c-18.102-4.693-34.352-11.412-48.299-19.961c-13.921-8.537-24.841-18.462-32.458-29.507c-7.858-11.392-11.847-23.486-11.847-35.941
		c0-12.462,3.988-24.551,11.847-35.948c7.617-11.045,18.537-20.97,32.458-29.506c13.947-8.55,30.197-15.269,48.299-19.962
		c18.752-4.865,38.679-7.333,59.213-7.333c20.542,0,40.469,2.468,59.221,7.333c18.095,4.693,34.352,11.412,48.299,19.962
		C395.699,154.582,406.619,164.507,414.243,175.552"/>
	<path fill="#0092BF" d="M411.707,296.113l-0.643,1.576l-6.028,4.154l-0.131-1.044c-0.152-1.071-0.18-1.23-0.546-1.755
		c-0.346-0.54-2.073-3.008-2.453-3.561c-0.699-1.016-1.41-2.046-2.088-3.068c-1.376-2.108-2.709-4.244-4.119-6.282
		c-0.235-0.339-0.519-0.712-0.581-0.81l-2.212,1.521c-1.064,0.809-1.05,0.871-0.815,2.481l-0.629,1.147l-1.064-3.601l12.552-8.653
		l0.892,3.006l-0.483,1.044c-0.111-0.283-0.581-1.271-0.643-1.368c-0.381-0.553-0.885-0.242-1.396,0.11l-2.496,1.756
		c6.256,9.538,6.815,10.354,7.7,11.625c0.464,0.678,0.844,1.23,1.444,2.025c0.768,0.995,1.169,1.037,2.053,0.539L411.707,296.113z"
		/>
	<path fill="#0092BF" d="M406.28,121.848l-0.892,0.456c-0.519,0.228-0.58,0.325-1.209,1.313l-7.956,12.814v1.229l-4.762,0.021
		l-0.007-0.208c0-3.726-0.305-7.43-0.449-11.135c-0.132-3.262-0.132-6.573-0.546-9.697l-0.049-0.304l-0.214,0.353
		c-0.38,0.587-0.747,1.188-1.092,1.763c-0.878,1.451-5.875,9.835-6.304,10.844c-0.263,0.595-0.152,0.796,0.38,1.189l1.583,1.293
		l-1.458,0.282l-3.629-2.197l0.794-0.373c0.457-0.201,0.574-0.27,0.789-0.546c0.331-0.415,4.326-6.843,6.808-10.948
		c0.305-0.498,1.693-2.8,1.859-3.11c0.146-0.284,0.504-0.919-0.152-1.32c-0.449-0.27-1.141-0.622-1.776-0.968l2.439-0.339
		l4.77,2.889c0.256,3.194,0.45,6.386,0.587,9.642c0.049,1.361,0.305,8.148,0.388,9.67c0.263-0.395,0.671-1.064,1.383-2.24
		c0.726-1.202,5.335-8.867,5.716-9.662c0.276-0.581,0.221-0.746-0.429-1.278l-1.541-1.279l1.438-0.29L406.28,121.848z"/>
	<path fill="#0092BF" d="M396.21,303.695c0.38,3.733-2.102,5.371-3.429,6.104c-0.733,0.401-1.527,0.74-2.344,0.989
		c-0.96,0.297-2.729,0.636-3.919,0.524l0.173-3.27l0.968-1.029l0.104,1.776c1.514,0.566,2.82,0.615,3.664,0.152
		c1.424-0.788,1.858-2.73,0.926-4.417c-1.126-2.053-3.145-2.073-5.198-2.108c-1.596,0.014-4.375,0.077-6.206-3.248
		c-0.768-1.383-1.224-3.166-0.822-4.99c0.525-2.322,2.177-3.373,3.221-3.946c2.06-1.135,3.946-1.21,5.038-1.01l-0.214,2.985
		l-0.863,1.079l-0.118-1.77c-0.927-0.491-2.081-0.719-3.158-0.131c-1.134,0.629-1.576,2.239-0.698,3.829
		c0.366,0.663,0.912,1.195,1.507,1.499c0.712,0.346,1.541,0.387,2.66,0.374c0.927-0.007,1.943,0.062,2.6,0.166
		c0.747,0.124,3.538,0.553,5.239,3.621C395.858,301.822,396.121,302.846,396.21,303.695"/>
	<path fill="#0092BF" d="M383.596,108.439l-0.844,0.449c-1.029,0.594-1.14,0.705-2.004,1.838
		c-3.394,4.652-6.809,9.296-10.333,13.796c-0.277-0.014-3.034-0.283-4.486-0.208c0.132-0.856,0.719-5.19,0.851-6.151
		c0.519-3.573,1.14-7.104,1.721-10.651l0.062-0.387c-1.424,2.046-1.798,2.557-4.409,6.041c-0.194,0.255-0.374,0.498-0.547,0.726
		l-0.905-0.678c0.449-0.608,0.898-1.216,1.341-1.824c1.707-2.405,3.366-4.818,4.963-7.299c-0.732-0.297-1.541-0.587-2.309-0.864
		l1.99-0.809l6.248,2.53l-0.739,0.422c-0.56,0.276-0.781,0.408-0.926,0.76c-0.076,0.194-0.111,0.401-0.139,0.574
		c-0.428,2.668-0.939,5.329-1.402,8.011c-0.491,2.667-0.954,5.35-1.272,7.997c1.756-2.227,3.456-4.5,5.129-6.822
		c0.711-1.002,4.167-6.034,4.997-7.154c-0.802-0.291-2.004-0.774-2.8-1.099l1.859-0.788L383.596,108.439z"/>
	<path fill="#0092BF" d="M374.555,314.99l-1.134,3.614l-10.54,4.113l0.007-1.135c0.014-0.317,0-0.726-0.021-0.967
		c-0.049-0.422-0.146-0.664-0.615-1.922c-1.714-4.762-3.511-9.489-5.315-14.238c-1.182,0.429-1.417,0.547-2.654,1.189l1.189-2.219
		l6.387-2.496l-0.305,0.809c-0.415,1.045-0.504,1.237-0.062,2.44l5.039,13.029c0.222,0.573,0.525,1.334,1.134,1.631
		c0.519,0.234,1.507-0.056,2.412-0.408c2.391-0.933,2.812-1.666,3.021-2.404L374.555,314.99z"/>
	<path fill="#0092BF" d="M363.635,100.379l-0.796,0.436c-0.511,0.27-0.746,0.394-0.912,0.795c-0.075,0.193-0.117,0.401-0.158,0.567
		c-0.443,2.502-0.851,4.921-1.293,7.361c-0.505,2.661-1.064,5.336-1.286,7.99c-0.02,0.117-0.013,0.214-0.034,0.332
		c1.203-1.535,2.378-3.083,3.546-4.645l0.905,0.678c-2.585,3.456-3.007,4.002-4.617,6.013c-0.311,0-1.444-0.11-2.011-0.117
		c-0.512-0.021-1.625-0.09-2.419-0.062c0.221-3,0.781-6.276,1.334-9.455c0.594-3.574,1.237-7.347,1.741-10.769l-0.933-0.38
		c-0.408-0.159-0.906-0.332-1.349-0.477l2.005-0.802L363.635,100.379z"/>
	<path fill="#0092BF" d="M342.712,319.282l4.687-1.362c-0.892-1.32-3.276-4.983-4.354-6.158L342.712,319.282z M354.477,320.243
		c1.99,2.502,2.993,3.214,4.209,4.078c-0.67,0.524-1.431,0.905-2.232,1.133c-2.868,0.837-4.624-0.94-6.463-3.656
		c-0.69-1.051-1.368-2.101-2.107-3.076l-0.083-0.124c-0.581,0.201-1.1,0.622-1.452,1.217l-2.066,0.602
		c-1.202,0.346-1.493,0.463-1.672,1.486c-0.104,0.58-0.415,2.896-0.173,3.731c0.331,1.154,2.08,1.099,3.953,1.016l0.139-0.013
		l-1.901,1.894c-0.235,0.131-0.56,0.283-0.961,0.401c-0.484,0.137-1.846,0.414-3.422-0.437c0.305-1.154,0.374-1.327,0.471-1.782
		c0.56-2.627,1.044-8.979,1.14-11.806c0.035-1.286,0.035-2.627,0.118-3.927l0.014-0.248c-0.726-0.554-1.216-0.899-2.592-0.498
		c-0.587,0.173-0.94,0.366-1.417,0.629l1.895-2.226l5.163-1.838c0.041,0.076,0.11,0.151,0.158,0.228
		c0.449,0.691,0.961,1.271,1.452,1.922c0.594,0.802,1.154,1.61,1.714,2.453c0.719,1.037,1.845,2.724,2.558,3.761
		C352.037,316.877,353.129,318.508,354.477,320.243"/>
	<path fill="#0092BF" d="M341.663,93.102c6.228,1.61,7.423,7.983,6.172,12.821c-1.327,5.149-5.474,9.241-10.99,8.287l0.222-1.286
		c0.608,0.131,2.903,0.415,4.707-3.373c0.498-1.05,0.85-2.163,1.146-3.297c0.561-2.177,0.823-4.437,0.713-6.635
		c-0.062-1.078-0.229-4.651-2.848-5.322c-0.221-0.055-0.436-0.083-0.643-0.09l0.083-1.375
		C340.756,92.894,341.241,92.991,341.663,93.102"/>
	<path fill="#0092BF" d="M340.225,92.832l-0.083,1.375c-1.21-0.027-2.185,0.774-2.717,1.334c-0.754,0.711-1.949,2.094-2.909,5.827
		c-0.962,3.705-0.796,7.734,0.248,9.663c0.497,0.884,1.237,1.617,2.198,1.866c0.027,0.007,0.062,0.014,0.104,0.028l-0.222,1.286
		c-0.275-0.042-0.553-0.104-0.836-0.173c-5.446-1.403-7.872-6.767-6.379-12.545c0.802-3.11,2.502-5.481,4.52-6.98
		C336.423,92.853,338.559,92.638,340.225,92.832"/>
	<path fill="#0092BF" d="M336.347,329.546l-1.203,1.21l-7.153,1.521l0.276-1.017c0.276-1.043,0.311-1.202,0.173-1.831
		c-0.11-0.629-0.761-3.573-0.898-4.23c-0.256-1.202-0.511-2.433-0.747-3.635c-0.463-2.475-0.87-4.956-1.389-7.383
		c-0.09-0.4-0.207-0.856-0.229-0.967l-2.626,0.553c-1.293,0.339-1.307,0.4-1.707,1.983l-1.023,0.809l0.401-3.725l14.908-3.174
		l-0.324,3.118l-0.844,0.781c0-0.305-0.048-1.396-0.069-1.515c-0.145-0.656-0.732-0.56-1.333-0.435l-2.979,0.663
		c2.115,11.204,2.315,12.179,2.641,13.692c0.173,0.802,0.311,1.458,0.56,2.426c0.325,1.21,0.684,1.403,1.687,1.278L336.347,329.546z
		"/>
	<path fill="#0092BF" d="M330.472,202.093c0,1.991,1.59,3.29,0.968,5.558c-5.06-0.961-10.05-2.268-14.833-3.981l0.415-0.339
		c4.299-0.892,8.038-3.428,12.821-2.605L330.472,202.093z"/>
	<path fill="#0092BF" d="M327.645,90.302l-1.444,2.786l-1.071,0.414c0.117-0.276,0.463-1.313,0.483-1.43
		c0.11-0.664-0.47-0.788-1.078-0.892l-3.014-0.47c-2.129,11.197-2.294,12.179-2.543,13.706c-0.139,0.809-0.249,1.472-0.367,2.46
		c-0.138,1.251,0.118,1.562,1.106,1.811l1.797,0.566l-1.562,0.691l-7.217-1.203l0.63-0.843c0.636-0.871,0.726-1.002,0.829-1.638
		c0.124-0.629,0.602-3.602,0.705-4.265c0.208-1.209,0.408-2.453,0.629-3.663c0.483-2.467,1.002-4.928,1.41-7.375
		c0.062-0.408,0.117-0.871,0.138-0.989l-2.64-0.435c-1.334-0.166-1.368-0.111-2.322,1.209l-1.245,0.387l1.735-3.325L327.645,90.302z
		"/>
	<path fill="#0092BF" d="M319.234,327.777c0.151,1.07,0.034,2.121-0.18,2.943c-0.968,3.622-3.871,4.271-5.371,4.486
		c-0.829,0.117-1.693,0.152-2.536,0.097c-1.01-0.062-2.786-0.373-3.857-0.898l1.327-2.993l1.266-0.622l-0.54,1.7
		c1.217,1.064,2.427,1.576,3.381,1.438c1.61-0.228,2.702-1.894,2.433-3.801c-0.332-2.315-2.212-3.049-4.12-3.815
		c-1.493-0.554-4.112-1.479-4.645-5.239c-0.228-1.562-0.021-3.394,1.003-4.955c1.312-1.984,3.234-2.379,4.409-2.545
		c2.323-0.331,4.12,0.271,5.066,0.844l-1.258,2.717l-1.188,0.697l0.519-1.693c-0.691-0.787-1.694-1.417-2.91-1.244
		c-1.279,0.188-2.268,1.534-2.012,3.332c0.111,0.753,0.429,1.444,0.878,1.942c0.546,0.566,1.307,0.905,2.356,1.285
		c0.864,0.318,1.79,0.747,2.371,1.078C316.282,322.911,318.743,324.307,319.234,327.777"/>
	<path fill="#0092BF" d="M306.537,104.755l-2.641,2.778l-11.377-1.05l0.505-0.892c0.532-1.009,0.546-1.12,0.768-2.806l1.548-15.378
		c-0.739-0.131-2.08-0.166-2.868-0.208l1.942-1.258l12.116,1.113l-2.163,2.239l-1.141,0.131c0.2-0.249,0.519-0.629,0.546-0.864
		c0.007-0.118-0.069-0.242-0.152-0.304c-0.124-0.104-0.255-0.118-0.802-0.166l-2.951-0.27l-0.843,7.492l5.64,0.519l-2.005,2.17
		l-1.078,0.159c0.056-0.083,0.332-0.498,0.387-0.581c0.028-0.083,0.077-0.139,0.083-0.194c0.035-0.38-0.248-0.408-0.773-0.456
		l-1.444-0.131c-0.747-0.069-0.995,0.291-1.093,1.541l-0.456,4.949c-0.041,0.76-0.097,1.514,0.332,1.942
		c0.38,0.415,1.907,0.615,2.364,0.657c0.414,0.035,2.087,0.131,2.792-0.159c0.414-0.166,0.629-0.353,0.975-0.698L306.537,104.755z"
		/>
	<path fill="#0092BF" d="M289.333,327.722l4.866-0.325c-0.581-1.486-2.129-5.571-2.931-6.953L289.333,327.722z M300.621,331.185
		c1.402,2.867,2.232,3.773,3.234,4.879c-0.768,0.373-1.59,0.574-2.426,0.636c-2.979,0.194-4.307-1.914-5.529-4.962
		c-0.45-1.176-0.885-2.343-1.396-3.449l-0.056-0.146c-0.608,0.069-1.203,0.373-1.68,0.871l-2.149,0.146
		c-1.244,0.082-1.555,0.138-1.948,1.099c-0.229,0.547-1.03,2.737-0.969,3.608c0.077,1.195,1.797,1.521,3.643,1.838l0.132,0.021
		l-2.253,1.437c-0.263,0.076-0.608,0.16-1.023,0.188c-0.505,0.034-1.894,0.007-3.249-1.161c0.546-1.058,0.644-1.217,0.837-1.638
		c1.112-2.447,2.951-8.544,3.643-11.287c0.317-1.252,0.602-2.558,0.96-3.816l0.07-0.234c-0.595-0.691-1.003-1.134-2.426-1.037
		c-0.616,0.042-1.003,0.152-1.521,0.305l2.33-1.77l5.432-0.684c0.027,0.09,0.076,0.173,0.104,0.255
		c0.297,0.774,0.67,1.452,1.009,2.19c0.414,0.906,0.781,1.818,1.154,2.765c0.47,1.169,1.216,3.049,1.693,4.217
		C298.955,327.368,299.673,329.2,300.621,331.185"/>
	<path fill="#0092BF" d="M287.239,87.496l-2.06,2.723l-1.278,0.449l0.656-1.306c-0.822-1.417-2.046-3.097-4.244-3.124
		c-2.702-0.035-4.9,3.117-4.962,8.322c-0.014,0.877,0.041,1.783,0.159,2.661c0.801,5.944,4.07,7.713,6.884,7.748
		c1.775,0.021,3.145-0.512,4.631-1.106l-2.688,2.246c-1.479,0.27-2.669,0.429-4.141,0.408c-1.071-0.014-2.239-0.118-3.394-0.511
		c-4.77-1.555-6.311-6.483-6.262-10.195c0.075-5.64,3.621-11.059,9.704-10.983C282.877,84.862,285.767,86.045,287.239,87.496"/>
	<path fill="#0092BF" d="M272.351,316.192c6.435,0.125,9.068,6.048,8.971,11.045c-0.096,5.268-3.123,10.161-8.604,10.596
		l-0.097-1.299c0.781-0.056,2.826-0.546,3.649-4.368c0.241-1.134,0.324-2.302,0.346-3.471c0.049-2.246-0.214-4.506-0.837-6.62
		c-0.311-1.03-1.299-4.466-4.002-4.521h-0.014V316.2C271.971,316.192,272.165,316.186,272.351,316.192"/>
	<path fill="#0092BF" d="M272.621,336.534l0.097,1.299c-0.332,0.028-0.67,0.042-1.016,0.035c-5.627-0.104-9.228-4.763-9.117-10.728
		c0.062-3.214,1.168-5.909,2.793-7.838c2.149-2.537,4.596-3.048,6.386-3.103v1.354c-1.548-0.021-2.516,1.209-2.965,1.99
		c-0.566,0.864-1.41,2.488-1.486,6.345c-0.068,3.829,1.017,7.707,2.481,9.345c0.691,0.739,1.576,1.285,2.564,1.307
		C272.414,336.541,272.503,336.541,272.621,336.534"/>
	<path fill="#0092BF" d="M263.664,103.089l0.711,1.002l-3.87,2.778l-0.124-0.166c-2.157-3.034-4.549-5.882-6.815-8.819
		c-1.997-2.578-3.912-5.28-6.068-7.582l-0.215-0.214l0.035,0.408c0.027,0.698,0.076,1.396,0.124,2.066
		c0.132,1.693,0.912,11.425,1.147,12.49c0.132,0.636,0.339,0.739,1.002,0.746l2.039,0.145l-1.022,1.071l-4.23,0.311l0.429-0.767
		c0.256-0.429,0.311-0.546,0.325-0.898c0.027-0.532-0.436-8.087-0.788-12.87c-0.049-0.581-0.242-3.263-0.29-3.608
		c-0.049-0.324-0.125-1.05-0.892-0.995c-0.525,0.042-1.286,0.159-2.005,0.242l1.79-1.687l5.564-0.415
		c2.053,2.46,4.063,4.949,6.062,7.527c0.829,1.078,4.969,6.462,5.916,7.651c-0.014-0.47-0.069-1.258-0.173-2.626
		c-0.104-1.396-0.78-10.312-0.933-11.184c-0.111-0.636-0.256-0.739-1.093-0.795l-1.997-0.152l1.002-1.064l4.119-0.305l-0.463,0.878
		c-0.297,0.498-0.29,0.615-0.221,1.776L263.664,103.089z"/>
	<path fill="#0092BF" d="M260,318.501l-2.267,2.551l-1.313,0.353l0.754-1.251c-0.699-1.473-1.798-3.249-3.981-3.449
		c-2.696-0.242-5.129,2.737-5.599,7.914c-0.076,0.877-0.097,1.783-0.041,2.667c0.338,5.986,3.462,8.004,6.262,8.26
		c1.769,0.166,3.179-0.269,4.7-0.746l-2.854,2.032c-1.493,0.158-2.689,0.222-4.154,0.09c-1.071-0.097-2.226-0.29-3.353-0.774
		c-4.631-1.922-5.785-6.953-5.446-10.651c0.512-5.619,4.465-10.747,10.526-10.194C255.853,315.543,258.638,316.938,260,318.501"/>
	<path fill="#0092BF" d="M242.161,106.849l-1.251,1.279l-7.292,1.099l0.4-1.154c0.118-0.373,0.242-0.739,0.249-1.279
		c-0.007-0.649-0.366-3.048-0.47-3.739c-0.214-1.417-0.442-2.8-0.656-4.189c-0.443-2.944-0.795-5.909-1.176-8.868l-0.283,0.042
		c-0.366,0.055-2.129,0.47-2.522,0.532l1.797-1.811l6.387-0.961l-0.463,0.754c-0.478,0.809-0.512,1.168-0.208,3.49l1.086,7.52
		c0.311,2.226,0.58,4.016,0.904,5.889c0.215,1.244,0.457,1.562,1.562,1.507L242.161,106.849z"/>
	<path fill="#0092BF" d="M229.028,333.762c-0.829,0.215-1.673,0.159-2.488-0.014c-3.787-0.787-4.782-4.402-5.287-6.476
		c-0.117-0.415-0.588-2.247-0.656-2.558c-0.457-1.797-0.65-1.839-1.161-1.942c-0.049-0.014-1.286-0.215-1.479-0.222l0.297-1.431
		c0.712,0.117,2.005,0.062,2.944-0.553c0.823-0.512,1.618-1.631,1.915-3.062c0.104-0.484,0.802-4.576-2.793-5.212l0.291-1.403
		l2.156,0.45c1.396,0.297,2.992,0.719,3.988,1.941c0.912,1.12,1.313,2.869,0.96,4.527c-0.193,0.947-0.649,1.956-1.306,2.717
		c-0.712,0.836-1.396,1.203-1.929,1.507c0.588,1.797,0.678,2.115,1.493,4.88C226.582,329.041,227.618,332.332,229.028,333.762"/>
	<path fill="#0092BF" d="M224.487,89.742l-0.483,0.947c-0.401,0.809-0.456,0.975-0.519,2.004c-0.152,2.219-0.283,4.438-0.608,8.612
		c-0.187,2.377-0.525,6.863-0.975,9.566c-0.359,0.201-1.064,0.601-1.583,0.898c-1.175,0.685-1.327,0.809-1.845,1.196
		c-0.657-1.23-4.624-8.46-5.495-10.029c-2.502-4.534-3-5.529-4.244-8.156l-1.327,0.297c-0.324,0.076-0.753,0.173-1.085,0.276
		l1.168-1.79l6.58-1.479l-0.595,1.154c-0.124,0.235-0.179,0.484-0.131,0.719c0.049,0.194,0.131,0.387,0.235,0.546
		c0.449,0.885,0.912,1.742,1.348,2.599c0.753,1.451,1.514,2.924,2.288,4.368c0.836,1.61,1.7,3.152,2.55,4.728
		c0.429,0.802,0.857,1.61,1.279,2.385c0.248-2.398,0.311-3.041,0.746-8.799c0.353-4.451,0.483-6.069,0.436-8.094
		c-0.401,0.118-2.495,0.615-2.965,0.726l1.07-1.742L224.487,89.742z"/>
	<path fill="#0092BF" d="M220.61,310.891l-0.291,1.403l-2.066,8.826l-0.297,1.431l-0.905,4.32c-0.166,0.802-0.401,1.915-0.263,2.329
		c0.173,0.574,0.843,0.774,1.223,0.885l1.818,0.56l-1.853,0.809l-7.05-1.479c0.774-0.912,0.857-1.009,1.037-1.334
		c0.324-0.588,0.456-1.189,0.587-1.846c0.166-0.773,1.051-4.887,1.562-7.14c0.594-2.71,1.236-5.592,1.907-8.26
		c-0.878-0.187-1.922-0.373-2.806-0.435l2.066-1.183L220.61,310.891z"/>
	<path fill="#0092BF" d="M202.957,305.714c6.152,1.9,7.044,8.322,5.571,13.098c-1.548,4.998-5.765,8.848-11.107,7.825l0.229-1.293
		c0.809,0.159,2.854,0.173,4.651-3.193c0.546-1.022,0.954-2.122,1.299-3.241c0.664-2.149,1.03-4.39,1.023-6.594
		c-0.014-1.079-0.014-4.652-2.592-5.454l0.311-1.32C202.563,305.597,202.763,305.652,202.957,305.714"/>
	<path fill="#0092BF" d="M204.304,105.107c1.77,5.294,0.305,11.301-5.508,13.244c-0.125,0.041-0.249,0.083-0.373,0.117l-0.374-1.452
		c0.312,0,0.622-0.042,0.927-0.145c0.373-0.125,2.799-0.968,2.212-5.426c-0.152-1.147-0.457-2.281-0.83-3.387
		c-0.712-2.136-1.714-4.175-3.007-5.958c-0.56-0.767-2.253-3.124-4.402-3.083l-0.049-1.534
		C198.624,96.046,202.785,100.56,204.304,105.107"/>
	<path fill="#0092BF" d="M202.341,305.541l-0.311,1.32c-1.493-0.456-2.765,0.463-3.421,1.092c-0.781,0.678-2.039,1.998-3.18,5.682
		c-1.127,3.664-1.154,7.693-0.2,9.67c0.456,0.905,1.161,1.673,2.107,1.963c0.062,0.014,0.166,0.049,0.312,0.076l-0.229,1.293
		c-0.359-0.069-0.726-0.16-1.092-0.27c-5.371-1.659-7.541-7.134-5.785-12.829c0.946-3.075,2.758-5.356,4.845-6.767
		C198.139,304.961,200.607,305.105,202.341,305.541"/>
	<path fill="#0092BF" d="M198.049,117.016l0.374,1.452c-5.191,1.507-9.96-1.652-11.806-7.174c-1.017-3.048-0.878-5.965,0-8.322
		c1.32-3.463,3.808-4.693,5.536-5.267c0.256-0.083,0.505-0.159,0.746-0.221l0.049,1.534c-0.29,0.007-0.581,0.056-0.885,0.16
		c-1.479,0.497-1.977,1.99-2.143,2.875c-0.242,1.002-0.491,2.813,0.732,6.476c1.21,3.629,3.539,6.919,5.461,7.969
		C196.722,116.815,197.386,117.016,198.049,117.016"/>
	<path fill="#0092BF" d="M191.608,302.535l-2.619,1.486l-1.141-0.188c0.587-0.387,0.684-0.504,0.739-0.643
		c0.124-0.297-0.131-0.436-0.56-0.608l-3.353-1.368l-3.041,6.967l5.612,2.295l-2.53,1.485l-1.05-0.109
		c0.221-0.194,0.38-0.354,0.442-0.388c0.09-0.09,0.18-0.146,0.234-0.283c0.139-0.325-0.151-0.442-0.539-0.602L182,309.841
		c-0.851-0.312-1.009,0.034-1.396,0.85l-2.004,4.9c-0.463,1.134-0.553,1.354-0.47,1.735c0.09,0.477,0.511,0.712,1.195,1.085
		l1.458,0.788l-1.956,0.429l-6.587-2.696l0.768-0.663c0.595-0.573,0.815-0.836,1.293-1.997c1.921-4.707,4.119-9.836,6.248-14.75
		c-0.898-0.366-1.805-0.705-2.688-1.029l2.204-0.685L191.608,302.535z"/>
	<path fill="#0092BF" d="M187.24,121.736c-0.539,0.671-1.244,1.127-1.998,1.479c-3.504,1.631-6.469-0.663-8.121-2.018
		c-0.339-0.263-1.811-1.445-2.053-1.659c-1.438-1.161-1.617-1.078-2.095-0.857c-0.034,0.021-0.891,0.463-1.216,0.65l-0.719-1.266
		c0.643-0.332,1.638-1.154,2.025-2.205c0.352-0.905,0.317-2.274-0.298-3.594c-0.214-0.457-2.101-4.147-5.356-2.502l-0.608-1.299
		l1.991-0.926c1.292-0.608,2.826-1.224,4.361-0.843c1.396,0.353,2.765,1.514,3.483,3.055c0.407,0.871,0.643,1.956,0.573,2.951
		c-0.069,1.099-0.394,1.797-0.643,2.364c1.548,1.085,1.811,1.286,4.119,3.013C182.45,119.421,185.255,121.433,187.24,121.736"/>
	<path fill="#0092BF" d="M178.005,124.751l-0.995,1.755l-6.532,3.048c0.069-1.195,0.084-1.334,0.035-1.692
		c-0.097-0.671-0.353-1.224-0.636-1.832c-0.332-0.719-2.095-4.541-3.027-6.649c-1.154-2.529-2.364-5.225-3.429-7.755
		c-0.815,0.38-1.756,0.85-2.502,1.327l0.947-2.185l4.935-2.301l0.608,1.299l3.629,8.301l0.719,1.266
		c-0.049,0.027-0.083,0.048-0.104,0.062l1.866,4.002c0.345,0.74,0.829,1.77,1.188,2.025c0.477,0.353,1.141,0.11,1.514-0.027
		L178.005,124.751z"/>
	<path fill="#0092BF" d="M164.486,291.234c0.505,1.348,0.325,3.138-0.532,4.603c-0.49,0.83-1.251,1.639-2.107,2.15
		c-0.947,0.566-1.708,0.69-2.315,0.814c-0.015,1.888-0.028,2.219-0.139,5.102c-0.104,2.212-0.173,5.661,0.705,7.465
		c-0.857-0.062-1.631-0.388-2.35-0.809c-3.339-1.956-3.125-5.695-2.944-7.831c0.021-0.422,0.158-2.309,0.193-2.626
		c0.145-1.854-0.028-1.949-0.478-2.219c-0.041-0.021-1.147-0.602-1.334-0.678l0.74-1.265c0.636,0.345,1.88,0.705,2.965,0.422
		c0.946-0.222,2.053-1.03,2.792-2.289c0.256-0.428,2.226-4.085-0.981-5.833l0.727-1.23l1.894,1.113
		C162.551,288.843,163.933,289.755,164.486,291.234"/>
	<path fill="#0092BF" d="M160.753,133.908l-0.719,1.832l-6.041,3.809c-0.228-2.102-0.255-2.191-1.168-3.553
		c-2.744-4.348-5.426-8.736-8.059-13.16l-0.111-0.173l-0.836,0.525c-0.221,0.146-0.892,0.566-1.562,1.058l0.74-2.156l4.666-2.938
		l0.732,1.16c1.403,2.434,2.938,4.915,4.417,7.299c0.242,0.401,0.49,0.795,0.74,1.189c0.677,1.099,1.354,2.184,2.031,3.283
		c0.215,0.346,0.429,0.732,0.664,1.105c1.078,1.7,1.541,2.274,2.812,1.542L160.753,133.908z"/>
	<path fill="#0092BF" d="M154.734,284.246l4.693,2.765l-0.727,1.23l-4.775,7.7l-0.74,1.265l-2.239,3.802
		c-0.415,0.704-0.988,1.693-0.995,2.129c-0.014,0.601,0.56,1.009,0.885,1.23l1.541,1.105l-2.011,0.173l-6.213-3.643
		c1.023-0.622,1.14-0.691,1.41-0.934c0.498-0.456,0.809-0.988,1.154-1.568c0.394-0.678,2.55-4.292,3.753-6.263
		c1.423-2.385,2.958-4.907,4.444-7.223c-0.774-0.456-1.7-0.961-2.516-1.307L154.734,284.246z"/>
	<path fill="#0092BF" d="M158.446,122.338c0.006,1.825-0.796,3.056-1.183,3.643l-3.068,2.419c0.47-1.188,1.313-3.726-0.298-6.275
		c-0.67-1.064-1.624-1.873-2.564-2.212c-1.472-0.525-2.474,0.104-2.938,0.4l-0.732-1.16l1.375-0.871
		c1.299-0.815,2.786-1.756,4.452-1.666c1.562,0.09,3.082,1.064,4.002,2.522C158.038,120.002,158.424,121.108,158.446,122.338"/>
	<path fill="#0092BF" d="M151.596,282.083l-3.027,0.753l-1.03-0.497c0.297-0.104,0.774-0.256,0.912-0.442
		c0.069-0.09,0.069-0.235,0.035-0.339c-0.048-0.145-0.152-0.228-0.587-0.56l-2.364-1.797l-4.687,5.909l4.506,3.428l-2.847,0.774
		l-0.995-0.429c0.083-0.048,0.545-0.249,0.628-0.29c0.076-0.056,0.145-0.076,0.18-0.124c0.228-0.305,0-0.478-0.415-0.795
		l-1.154-0.878c-0.594-0.449-1.002-0.283-1.749,0.732l-3.007,3.953c-0.442,0.616-0.885,1.237-0.746,1.818
		c0.104,0.553,1.292,1.534,1.659,1.811c0.332,0.256,1.693,1.217,2.447,1.348c0.442,0.083,0.719,0.035,1.196-0.083l1.666,0.719
		l-3.711,0.962l-9.089-6.92l0.898-0.49c0.981-0.574,1.057-0.663,2.135-1.977l9.47-12.221c-0.56-0.497-1.68-1.243-2.33-1.7
		l2.322-0.034L151.596,282.083z"/>
	<path fill="#0092BF" d="M140.136,273.423l-2.778,1.444l-1.113-0.276c0.249-0.159,1.133-0.809,1.216-0.892
		c0.47-0.478,0.069-0.919-0.366-1.348l-2.198-2.122c-8.184,7.941-8.882,8.646-9.967,9.752c-0.574,0.581-1.051,1.064-1.714,1.797
		c-0.836,0.947-0.802,1.349-0.138,2.122l1.147,1.493l-1.68-0.332l-5.211-5.135l1.002-0.325c1.022-0.346,1.168-0.407,1.624-0.863
		c0.463-0.443,2.557-2.606,3.034-3.083c0.857-0.878,1.742-1.77,2.613-2.634c1.811-1.741,3.656-3.456,5.398-5.225
		c0.284-0.291,0.602-0.644,0.684-0.726l-1.915-1.881c-0.995-0.898-1.05-0.871-2.592-0.338l-1.244-0.401l3.332-1.721L140.136,273.423
		z"/>
	<path fill="#0092BF" d="M125.794,258.521l2.413,3.353l-0.996,0.062c-0.574,0.008-0.664,0.077-1.624,0.74l-12.352,8.667
		l-0.477,1.127l-4.389-1.846l0.076-0.193c1.458-3.429,2.633-6.953,3.954-10.416c1.154-3.056,2.454-6.096,3.29-9.138l0.076-0.297
		l-0.332,0.241c-0.581,0.388-1.154,0.803-1.693,1.189c-1.382,0.995-9.269,6.746-10.057,7.499c-0.47,0.45-0.449,0.678-0.11,1.251
		l0.947,1.811l-1.451-0.31l-2.475-3.442l0.871-0.035c0.505-0.007,0.636-0.021,0.947-0.193c0.463-0.256,6.663-4.604,10.554-7.402
		c0.47-0.339,2.654-1.907,2.923-2.136c0.249-0.2,0.83-0.65,0.38-1.271c-0.304-0.429-0.802-1.017-1.251-1.59l2.378,0.649l3.255,4.527
		c-1.023,3.034-2.087,6.048-3.249,9.103c-0.483,1.272-2.91,7.61-3.428,9.04c0.395-0.255,1.037-0.719,2.15-1.52
		c1.141-0.816,8.384-6.056,9.047-6.643c0.484-0.429,0.498-0.602,0.104-1.348l-0.912-1.776L125.794,258.521z"/>
	<path fill="#0092BF" d="M111.791,233.984l4.9,11.142l-3.007-0.816l-0.67-0.926c0.311,0.056,0.802,0.152,1.016,0.056
		c0.111-0.049,0.18-0.173,0.2-0.277c0.028-0.158-0.027-0.275-0.249-0.78l-1.196-2.717l-6.96,2.896l2.274,5.184l-2.861-0.705
		l-0.664-0.857c0.097,0,0.595,0.049,0.691,0.056c0.09-0.021,0.159,0,0.214-0.027c0.346-0.152,0.235-0.415,0.021-0.892l-0.581-1.327
		c-0.304-0.685-0.739-0.732-1.88-0.207l-4.548,1.997c-0.691,0.325-1.376,0.649-1.535,1.224c-0.18,0.539,0.38,1.97,0.567,2.392
		c0.173,0.38,0.898,1.887,1.493,2.37c0.346,0.277,0.608,0.38,1.085,0.505l1.106,1.431l-3.712-0.961l-4.596-10.457l1.023,0.007
		c1.141-0.021,1.251-0.069,2.827-0.691l14.211-6.096c-0.249-0.705-0.871-1.9-1.217-2.613L111.791,233.984z"/>
	<path fill="#0092BF" d="M110.374,225.759c0.491,2.592-0.09,5.646-1.224,7.382l-3.069-1.473l-0.698-1.167l1.41,0.38
		c1.223-1.078,2.626-2.62,2.219-4.776c-0.498-2.654-4.029-4.182-9.144-3.214c-0.857,0.159-1.735,0.394-2.579,0.684
		c-5.661,1.971-6.746,5.523-6.227,8.288c0.332,1.749,1.133,2.985,2.004,4.319l-2.73-2.19c-0.56-1.39-0.954-2.523-1.224-3.975
		c-0.2-1.058-0.332-2.212-0.173-3.428c0.574-4.983,5.101-7.473,8.75-8.156C103.234,217.382,109.247,219.78,110.374,225.759"/>
</g>
<rect fill="none" width="547.412" height="423"/>
</svg>
